<?xml version="1.0" encoding="UTF-8" standalone="no"?>
<svg
   xmlns:dc="http://purl.org/dc/elements/1.1/"
   xmlns:cc="http://creativecommons.org/ns#"
   xmlns:rdf="http://www.w3.org/1999/02/22-rdf-syntax-ns#"
   xmlns:svg="http://www.w3.org/2000/svg"
   xmlns="http://www.w3.org/2000/svg"
   xmlns:sodipodi="http://sodipodi.sourceforge.net/DTD/sodipodi-0.dtd"
   xmlns:inkscape="http://www.inkscape.org/namespaces/inkscape"
   width="490.1814"
   height="518.21857"
   viewBox="0 0 129.69383 137.11199"
   version="1.1"
   id="svg8"
   inkscape:version="1.0.2-2 (e86c870879, 2021-01-15)"
   sodipodi:docname="detalle-caldero.svg">
  <defs
     id="defs2" />
  <sodipodi:namedview
     id="base"
     pagecolor="#ffffff"
     bordercolor="#666666"
     borderopacity="1.0"
     inkscape:pageopacity="0.0"
     inkscape:pageshadow="2"
     inkscape:zoom="0.64"
     inkscape:cx="222.30962"
     inkscape:cy="-48.635691"
     inkscape:document-units="mm"
     inkscape:current-layer="layer19"
     inkscape:document-rotation="0"
     showgrid="false"
     inkscape:window-width="1680"
     inkscape:window-height="987"
     inkscape:window-x="1912"
     inkscape:window-y="-8"
     inkscape:window-maximized="1"
     inkscape:snap-page="false"
     inkscape:pagecheckerboard="true"
     showborder="true"
     fit-margin-top="0"
     fit-margin-left="0"
     fit-margin-right="0"
     fit-margin-bottom="0"
     units="px"
     showguides="true" />
  <metadata
     id="metadata5">
    <rdf:RDF>
      <cc:Work
         rdf:about="">
        <dc:format>image/svg+xml</dc:format>
        <dc:type
           rdf:resource="http://purl.org/dc/dcmitype/StillImage" />
        <dc:title></dc:title>
      </cc:Work>
    </rdf:RDF>
  </metadata>
  <g
     inkscape:label="Layer 1"
     inkscape:groupmode="layer"
     id="layer1"
     style="display:none"
     transform="translate(-112.1853,-187.35247)">
    <rect
       style="opacity:0.95;fill:#784735;fill-rule:evenodd;stroke-width:0.264583"
       id="rect833"
       width="58"
       height="58"
       x="36.285713"
       y="37.797619" />
  </g>
  <g
     inkscape:groupmode="layer"
     id="layer7"
     inkscape:label="brazo"
     transform="translate(38.50734,-207.68754)"
     style="display:none">
    <circle
       style="opacity:1;fill:#c8ed8c;fill-rule:evenodd;stroke:#4cbd48;stroke-width:2;stroke-miterlimit:4;stroke-dasharray:none;stroke-opacity:1"
       id="path1364"
       sodipodi:type="arc"
       sodipodi:cx="-85.505363"
       sodipodi:cy="60.36533"
       sodipodi:rx="22.070616"
       sodipodi:ry="23.824574"
       sodipodi:start="5.7742822"
       sodipodi:end="5.7588186"
       sodipodi:open="true"
       sodipodi:arc-type="arc"
       d="m -66.231548,48.757529 a 22.070616,23.824574 0 0 1 -8.446148,32.368281 22.070616,23.824574 0 0 1 -30.017764,-8.992164 22.070616,23.824574 0 0 1 8.214055,-32.437807 22.070616,23.824574 0 0 1 30.081275,8.741363" />
    <path
       style="fill:none;stroke:#4cbd48;stroke-width:2;stroke-linecap:butt;stroke-linejoin:miter;stroke-miterlimit:4;stroke-dasharray:none;stroke-opacity:1"
       d="m -107.61733,61.371003 -11.69304,-7.308151 11.10839,-19.293519"
       id="path1379" />
  </g>
  <g
     inkscape:groupmode="layer"
     id="layer11"
     inkscape:label="brazo 2"
     style="display:none"
     transform="translate(-52.155076,-160.05586)">
    <path
       style="display:inline;fill:none;stroke:#4cbd48;stroke-width:2;stroke-linecap:butt;stroke-linejoin:miter;stroke-miterlimit:4;stroke-dasharray:none;stroke-opacity:1"
       d="M 27.431918,14.421632 39.124958,7.1134816 28.016568,-12.180038"
       id="path1379-1" />
  </g>
  <g
     inkscape:groupmode="layer"
     id="layer19"
     inkscape:label="caldero"
     style="display:none"
     transform="translate(-70.66424,-126.84973)">
    <path
       style="fill:#2b1f4d;stroke:#853e61;stroke-width:2;stroke-linecap:butt;stroke-linejoin:miter;stroke-miterlimit:4;stroke-dasharray:none;stroke-opacity:1"
       d="m 79.512683,129.79276 c -7.903883,6.64243 -17.074924,13.13127 0,22.80143 34.109667,11.90905 104.705557,7.42473 112.253197,0 13.9918,-2.94363 15.27441,-24.29542 -16.95491,-25.72469"
       id="path1051"
       sodipodi:nodetypes="cccc" />
    <path
       style="fill:#2b1f4d;stroke:#853e61;stroke-width:2;stroke-linecap:butt;stroke-linejoin:miter;stroke-miterlimit:4;stroke-dasharray:none;stroke-opacity:1"
       d="m 79.512683,152.59419 c 3.56091,9.71457 -3.096852,12.6167 -5.846522,18.12422 -9.400218,18.60006 -23.063122,41.41047 14.031651,64.89638"
       id="path1053"
       sodipodi:nodetypes="ccc" />
    <path
       style="fill:#2b1f4d;stroke:#853e61;stroke-width:2;stroke-linecap:butt;stroke-linejoin:miter;stroke-miterlimit:4;stroke-dasharray:none;stroke-opacity:1"
       d="m 191.76588,152.59419 c 0.60368,10.05632 4.07926,18.19805 9.35444,25.14004 23.71013,51.60384 -24.52376,59.49688 -14.61631,56.1266"
       id="path1055"
       sodipodi:nodetypes="ccc" />
    <path
       style="fill:#2b1f4d;stroke:#853e61;stroke-width:2;stroke-linecap:butt;stroke-linejoin:miter;stroke-miterlimit:4;stroke-dasharray:none;stroke-opacity:1"
       d="m 171.88771,227.42966 c 8.71517,-0.93074 13.69617,1.12587 14.6163,6.43117 1.985,7.0026 -0.23323,13.65493 -7.60047,19.87817 l 7.01582,8.18513 c -1.55907,2.40721 -3.11815,3.8078 -4.67722,2.33861 -4.05243,-0.34388 -8.0543,-0.38433 -12.86234,-5.26187 -5.00613,-4.03512 -0.52152,-9.0474 -0.58465,-15.20095 -27.66266,10.81522 -45.42656,3.47744 -62.55778,0 0.98122,5.11145 4.22662,8.8078 -0.58465,17.53956 -2.30779,2.98489 -6.106289,2.98837 -9.939082,2.92326 l -7.015826,-2.92326 c 7.118702,-5.46046 5.29689,-14.8324 0,-25.72469 4.677216,-8.03487 9.354432,-4.57102 14.031648,-2.92326"
       id="path1057"
       sodipodi:nodetypes="ccccccccccccc" />
    <path
       style="fill:#2b1f4d;stroke:#853e61;stroke-width:2;stroke-linecap:butt;stroke-linejoin:miter;stroke-miterlimit:4;stroke-dasharray:none;stroke-opacity:1"
       d="m 128.62346,247.89248 c 4.8721,11.89641 9.7442,15.47405 14.6163,-0.58465"
       id="path1059"
       sodipodi:nodetypes="cc" />
    <path
       style="fill:#2b1f4d;stroke:#853e61;stroke-width:2;stroke-linecap:butt;stroke-linejoin:miter;stroke-miterlimit:4;stroke-dasharray:none;stroke-opacity:1"
       d="m 79.80501,178.90354 c -9.678562,12.31582 -9.701407,25.29755 3.215585,39.17169"
       id="path1061"
       sodipodi:nodetypes="cc" />
    <path
       style="fill:none;stroke:#853e61;stroke-width:2;stroke-linecap:butt;stroke-linejoin:miter;stroke-miterlimit:4;stroke-dasharray:none;stroke-opacity:1"
       d="m 188.5503,178.02656 c 4.83433,12.48724 12.52121,25.09334 -0.58466,36.83308"
       id="path1063"
       sodipodi:nodetypes="cc" />
    <path
       style="fill:#2b1f4d;stroke:#853e61;stroke-width:2;stroke-linecap:butt;stroke-linejoin:miter;stroke-miterlimit:4;stroke-dasharray:none;stroke-opacity:1"
       d="m 78.051053,138.56254 c 0.945518,5.52956 5.213396,8.29049 10.816063,9.93909 32.513424,3.5651 64.323314,10.5071 100.560164,-3.80024 3.91162,-0.3306 2.94815,-4.3175 4.09256,-6.7235"
       id="path1065"
       sodipodi:nodetypes="cccc" />
    <path
       style="fill:none;stroke:#000000;stroke-width:0.264583px;stroke-linecap:butt;stroke-linejoin:miter;stroke-opacity:1"
       d="M 79.512683,129.79276 174.81097,126.8695"
       id="path1067" />
    <path
       style="opacity:0.95;fill:#2b1f4d;fill-rule:evenodd;stroke:#2b1f4d;stroke-width:7.55906;stroke-miterlimit:4;stroke-dasharray:none"
       d="m 331.11295,879.43737 c -0.0325,-1.24862 -5.89764,-61.18931 -13.03371,-133.20153 -12.11703,-122.27669 -12.83062,-131.46876 -10.79558,-139.0625 1.29074,-4.81638 1.80486,-11.15686 1.26114,-15.55308 -0.50486,-4.08203 -0.7157,-7.42187 -0.46852,-7.42187 0.24718,0 5.27643,1.3804 11.17611,3.06755 57.52964,16.45201 162.8051,24.99503 252.54461,20.49381 71.22158,-3.57238 110.03516,-9.22967 147.26563,-21.46474 2.4364,-0.80068 2.73754,0.3557 2.76342,10.61176 0.0417,16.50848 -3.59477,74.70331 -4.62822,74.06686 -0.47827,-0.29453 -2.77472,0.27539 -5.10322,1.2665 l -4.23364,1.80201 4.27305,10.15625 4.27304,10.15625 -3.39564,51.5625 c -5.00308,75.97129 -5.04695,76.66362 -6.04081,95.3125 -0.50378,9.45312 -1.27422,19.4792 -1.71206,22.28017 l -0.79611,5.09265 -5.78585,-4.5749 c -8.04184,-6.35875 -20.16634,-9.51667 -36.53818,-9.51667 -11.20625,0 -13.77891,0.43759 -13.77891,2.34375 0,1.28906 -0.52734,2.32829 -1.17187,2.3094 -0.64454,-0.0189 -59.41782,4.31627 -130.6073,9.63367 -101.25391,7.56305 -129.69532,9.24747 -130.62917,7.73647 -1.81489,-2.93654 -21.30964,-9.52329 -28.18602,-9.52329 -8.44678,0 -13.907,2.37117 -20.73376,9.00389 -3.63214,3.52889 -5.88182,4.82987 -5.91843,3.42259 z"
       id="path1699"
       transform="scale(0.26458333)" />
    <path
       style="opacity:0.95;fill:#2b1f4d;fill-rule:evenodd;stroke:#2b1f4d;stroke-width:0;stroke-miterlimit:4;stroke-dasharray:none"
       d="m 330.53674,875.36667 c -0.53377,-4.16599 -2.7389,-25.85578 -4.90028,-48.19953 -6.32774,-65.41419 -14.58783,-149.16952 -17.97025,-182.21396 -2.40201,-23.46644 -2.73248,-31.70742 -1.40979,-35.15625 0.95022,-2.47763 1.73356,-9.25089 1.74075,-15.05167 0.007,-5.80078 0.52653,-10.54687 1.1541,-10.54687 0.62757,0 4.6085,1.00441 8.84651,2.23203 55.60854,16.10804 148.59435,24.29401 240.38319,21.16206 72.25447,-2.46542 129.12673,-9.83291 155.18217,-20.10301 l 7.84966,-3.09404 0.81456,7.22683 c 0.44802,3.97476 -0.14375,20.62964 -1.31497,37.01085 -1.17125,16.38122 -2.15448,32.77231 -2.18497,36.42465 -0.0438,5.25225 -0.62711,6.64563 -2.78979,6.66455 -6.83352,0.0598 -7.31018,2.25867 -2.88552,13.31129 2.48333,6.20322 3.89825,12.20159 3.44631,14.61003 -0.42172,2.2473 -1.20269,12.17194 -1.73547,22.05476 -0.53279,9.88281 -2.01729,33.08593 -3.2989,51.5625 -1.2816,18.47656 -2.56535,37.8125 -2.85275,42.96875 -0.28742,5.15625 -1.04,18.86718 -1.67239,30.46875 -0.63241,11.60156 -1.49449,21.6822 -1.91575,22.40142 -0.42127,0.7192 -2.97183,-0.79897 -5.66793,-3.37372 -2.69609,-2.57477 -7.71448,-5.86511 -11.15198,-7.31189 -10.51581,-4.42589 -41.78284,-5.17992 -39.16522,-0.9445 0.87108,1.40942 -5.57614,2.09751 -52.24103,5.57556 -51.51658,3.83964 -94.73845,7.08327 -125.78125,9.43936 -71.75357,5.44597 -83.8042,6.09013 -84.86701,4.53652 -1.66996,-2.44116 -17.53498,-8.50799 -24.89842,-9.52122 -8.92538,-1.22816 -19.41246,2.90845 -25.21265,9.94508 l -4.53043,5.4962 z"
       id="path1701"
       transform="scale(0.26458333)" />
    <path
       style="opacity:0.95;fill:#2b1f4d;fill-rule:evenodd;stroke:#2b1f4d;stroke-width:0;stroke-miterlimit:4;stroke-dasharray:none"
       d="m 687.422,995.29853 c -1.28906,-0.71766 -6.91406,-1.75672 -12.5,-2.30902 -12.67184,-1.2529 -23.87152,-6.59817 -34.25973,-16.35115 -7.53341,-7.07272 -7.92777,-7.84215 -7.92777,-15.46749 0,-4.41348 1.40133,-13.86984 3.11405,-21.01412 3.16881,-13.218 4.0829,-24.71418 1.96408,-24.70118 -0.64454,0.005 -6.61135,2.12308 -13.25958,4.70914 -25.14492,9.78102 -76.46475,20.19644 -79.04958,16.04321 -0.57763,-0.92811 -2.69963,-1.93572 -4.71558,-2.23913 -3.28886,-0.49498 -4.12715,0.71152 -8.16103,11.74566 -4.64692,12.71109 -10.31708,21.63833 -15.50819,24.41653 -4.54411,2.43194 -12.45245,-5.46106 -19.61967,-19.58159 -5.02501,-9.90007 -5.64748,-12.10636 -3.75362,-13.30443 1.83586,-1.16135 1.67229,-1.47621 -0.85463,-1.64518 -1.71875,-0.115 -3.75195,-0.0925 -4.51822,0.0498 -2.31472,0.43 -33.54739,-5.82553 -65.41461,-13.10175 -16.52523,-3.7732 -30.28291,-6.62334 -30.57262,-6.33364 -0.2897,0.2897 1.35582,7.43694 3.65671,15.88275 5.52654,20.28603 5.08137,33.26417 -1.59994,46.64338 -5.95012,11.91503 -11.20149,14.8272 -26.74332,14.83059 -7.93245,0.002 -13.31857,-0.95347 -18.75,-3.3252 -4.19128,-1.83019 -7.86729,-3.54182 -8.16892,-3.80363 -0.30163,-0.2618 1.33968,-2.95142 3.64734,-5.97692 12.24121,-16.04905 11.36207,-45.12066 -2.33804,-77.31544 -2.73741,-6.43284 -4.41637,-12.59245 -3.88701,-14.26033 0.51254,-1.61486 3.38365,-5.08878 6.38025,-7.71982 6.9258,-6.08094 14.93807,-6.32396 29.37235,-0.89091 8.46821,3.18742 10.34228,3.47055 10.34228,1.5625 0,-1.62674 1.7691,-2.3718 5.85938,-2.46766 3.22265,-0.0755 16.40625,-1.04881 29.29687,-2.16283 l 23.4375,-2.0255 -27.61844,0.82691 c -25.94156,0.77669 -28.05177,0.6232 -34.75571,-2.52803 -18.67167,-8.77672 -30.89545,-8.38472 -41.94927,1.34523 l -6.93529,6.10469 -2.03135,-21.04565 c -1.11724,-11.5751 -2.36572,-20.71129 -2.77438,-20.30261 -0.40867,0.40867 0.14064,9.93748 1.22069,21.17514 1.08005,11.23765 1.54943,20.8464 1.04306,21.35278 -1.53231,1.53229 -25.71083,-16.64174 -39.7305,-29.86386 -29.52679,-27.84706 -43.36809,-53.96497 -45.22528,-85.33811 -1.07317,-18.12886 0.93623,-30.82011 8.49317,-53.64226 7.31869,-22.10265 28.96657,-65.9983 39.21481,-79.51632 4.42046,-5.83084 9.0733,-12.51052 10.33966,-14.84375 2.27765,-4.19652 2.30562,-4.14962 2.59518,4.35152 0.25487,7.48264 0.44206,6.87658 1.44785,-4.6875 1.62447,-18.67739 3.23506,-31.92147 3.9724,-32.66549 0.3457,-0.34883 8.1947,1.19259 17.44222,3.42538 29.93397,7.22747 58.98116,12.05802 86.34493,14.35916 6.44531,0.54202 18.04688,1.5495 25.78125,2.23885 41.79219,3.72487 132.24048,3.01254 179.6875,-1.41513 41.277,-3.8519 77.16858,-10.01831 91.73875,-15.76134 4.17763,-1.64666 8.31802,-2.99393 9.20088,-2.99393 1.02721,0 1.42834,5.85521 1.11403,16.26168 -0.27014,8.94392 0.0362,15.93367 0.68072,15.53278 0.64453,-0.40089 1.26406,-5.08193 1.37675,-10.4023 l 0.20485,-9.67341 1.17638,8.59375 c 2.22634,16.2643 11.58383,38.2931 25.10025,59.08943 13.95219,21.4668 25.94252,57.54795 29.61134,89.1061 3.07414,26.44286 -2.09387,55.15172 -13.5149,75.07658 -10.95802,19.11711 -32.07474,38.57059 -51.14046,47.11246 -6.06007,2.71505 -6.55584,2.73115 -7.54814,0.24504 -0.58414,-1.46347 -1.20723,-5.47336 -1.38467,-8.91086 -0.19086,-3.69758 -0.59637,-4.83538 -0.99297,-2.78608 -0.6555,3.38715 -0.85806,3.3393 -9.13848,-2.15858 -4.65747,-3.09239 -11.46708,-6.20256 -15.13247,-6.91152 -10.8342,-2.09548 -29.0242,-1.68051 -32.8912,0.75036 -2.94283,1.84993 -59.2673,7.31619 -74.42421,7.22283 -2.07681,-0.0125 -3.34279,0.40997 -2.81328,0.93949 0.52952,0.52951 18.35914,-0.29802 39.62139,-1.83896 29.29191,-2.12287 38.80716,-2.35614 39.27163,-0.96275 0.41098,1.23299 5.36023,1.83896 15.01973,1.83896 12.1956,0 15.5976,0.59342 22.16561,3.8664 9.1828,4.57597 12.19963,9.13442 14.79217,22.35102 4.05966,20.6958 -2.38342,38.7158 -20.5369,57.43756 l -11.11557,11.46352 13.65283,15.76686 c 13.29046,15.34834 13.57885,15.84861 10.86535,18.847 -3.09966,3.42507 -3.62838,3.55215 -6.99066,1.68028 z M 523.3595,869.384 c 24.49219,-1.94614 41.86434,-3.6278 38.6048,-3.73702 -6.09519,-0.20425 -108.17171,7.13459 -115.1673,8.28 -8.22056,1.34598 33.91408,-1.15416 76.5625,-4.54298 z m 183.95073,-26.98249 c -0.3371,-3.22265 -0.6129,-0.58594 -0.6129,5.85938 0,6.44531 0.2758,9.08203 0.6129,5.85937 0.3371,-3.22265 0.3371,-8.49609 0,-11.71875 z M 326.04322,826.798 c -0.35915,-2.3751 -0.66259,-0.80274 -0.67432,3.49414 -0.0117,4.29687 0.28211,6.24014 0.65299,4.31836 0.37088,-1.92179 0.38048,-5.43741 0.0213,-7.8125 z m 384.75453,-14.47461 c 0.75011,0 1.62633,0.78748 1.94716,1.74998 0.89954,2.69863 16.53334,-15.26533 21.09015,-24.23358 12.71174,-25.01792 11.03386,-48.84595 -6.51959,-92.586 -4.75391,-11.84589 -8.65424,-23.32081 -8.66739,-25.49982 -0.0141,-2.26049 -0.51689,-3.20072 -1.17188,-2.18946 -0.63137,0.9748 -2.5542,2.05498 -4.27295,2.40039 -3.55997,0.71544 -3.53627,2.47758 0.20947,15.56724 2.35003,8.21232 2.29619,12.24558 -0.80308,60.15625 -1.82709,28.24456 -3.57536,59.08812 -3.88505,68.54125 -0.30968,9.45312 -0.27678,12.4414 0.0731,6.64062 0.34991,-5.80078 1.24991,-10.54687 2.00003,-10.54687 z m -402.83413,-2.18146 c -33.4873,-42.14023 -36.70297,-81.35122 -9.90748,-120.80932 3.60435,-5.30764 6.55336,-10.22283 6.55336,-10.92264 0,-1.35814 -6.25164,-5.70534 -6.99876,-4.86672 -4.75446,5.33676 -17.13929,27.4819 -20.54209,36.73103 -4.13287,11.23355 -4.48714,13.88487 -4.44942,33.29911 0.0389,20.04972 0.28919,21.71434 5.05589,33.63222 5.49578,13.74075 16.65955,31.69448 27.0082,43.43495 6.59258,7.47923 6.66552,7.51294 9.69858,4.47987 3.03307,-3.03306 2.9848,-3.14572 -6.41828,-14.9785 z m 16.5171,-0.53143 c -0.35915,-2.3751 -0.66259,-0.80274 -0.67432,3.49414 -0.0117,4.29687 0.28211,6.24014 0.65299,4.31836 0.37088,-1.92179 0.38048,-5.43741 0.0213,-7.8125 z m -1.5625,-15.625 c -0.35915,-2.3751 -0.66259,-0.80274 -0.67432,3.49414 -0.0117,4.29687 0.28211,6.24014 0.65299,4.31836 0.37088,-1.92179 0.38048,-5.43741 0.0213,-7.8125 z m -2.68372,-28.53711 c -1.1042,-12.07288 -2.33426,-21.62407 -2.73347,-21.22486 -0.3992,0.3992 0.1731,10.60814 1.27178,22.68654 1.09868,12.07841 2.32874,21.6296 2.73346,21.22488 0.40473,-0.40474 -0.16757,-10.61369 -1.27177,-22.68656 z m -3.58479,-33.20313 c -0.37243,-1.93359 -0.67714,-0.35156 -0.67714,3.51563 0,3.86718 0.30471,5.44922 0.67714,3.51562 0.37243,-1.93359 0.37243,-5.09765 0,-7.03125 z m -1.54399,-16.38476 c -0.35915,-2.3751 -0.66259,-0.80274 -0.67432,3.49414 -0.0117,4.29687 0.28211,6.24013 0.65299,4.31836 0.37088,-1.92178 0.38048,-5.43741 0.0213,-7.8125 z m -1.5625,-17.1875 c -0.35915,-2.3751 -0.66259,-0.80274 -0.67432,3.49414 -0.0117,4.29687 0.28211,6.24013 0.65299,4.31836 0.37088,-1.92178 0.38048,-5.43741 0.0213,-7.8125 z m -1.5625,-15.625 c -0.35915,-2.3751 -0.66259,-0.80274 -0.67432,3.49414 -0.0117,4.29687 0.28211,6.24013 0.65299,4.31836 0.37088,-1.92178 0.38048,-5.43741 0.0213,-7.8125 z m -1.90247,-20.72461 c -0.61978,-7.83074 -1.45813,-13.90646 -1.863,-13.50159 -0.40486,0.40487 -0.23448,7.14855 0.37863,14.98596 0.61311,7.83741 1.45145,13.91313 1.86299,13.50159 0.41154,-0.41154 0.24116,-7.15522 -0.37862,-14.98596 z m 411.31138,-33.59375 c -0.0677,-8.2901 -0.21135,-7.83805 -1.24197,3.90625 -0.64103,7.30468 -1.12389,17.85156 -1.07303,23.4375 0.0851,9.34395 0.1844,9.03153 1.24196,-3.90625 0.63224,-7.73438 1.1151,-18.28125 1.07304,-23.4375 z M 307.29322,636.173 c -0.35915,-2.3751 -0.66259,-0.80274 -0.67432,3.49414 -0.0117,4.29687 0.28211,6.24013 0.65299,4.31836 0.37088,-1.92178 0.38048,-5.43741 0.0213,-7.8125 z"
       id="path1703"
       transform="scale(0.26458333)" />
  </g>
  <g
     inkscape:groupmode="layer"
     id="layer20"
     inkscape:label="humo"
     style="display:none"
     transform="translate(-70.66424,-126.84973)">
    <path
       style="fill:#f0baa3;stroke:#853e61;stroke-width:2;stroke-linecap:butt;stroke-linejoin:miter;stroke-miterlimit:4;stroke-dasharray:none;stroke-opacity:1"
       d="m 88.867116,148.50163 c -5.483019,-11.29223 -19.364339,-33.52867 7.600477,-44.43356 5.331067,-7.274764 42.657537,-4.803317 42.314187,-7.088906 17.23347,-9.095334 7.32898,-15.034364 0.51158,-17.758806 -8.50837,0.611359 -16.00367,2.742331 -25.57853,1.753955 -27.468375,-2.627111 -32.246133,-23.75919 -24.555388,-32.375108 3.594159,-3.725914 1.872508,-4.352049 12.862348,-7.673559 10.18938,0.0704 20.86844,1.058945 29.59801,-1.607794 3.04853,-2.232072 4.43292,-5.578489 0.73081,-8.477456 -3.26902,-0.216168 -12.29178,-5.015072 -13.37391,-10.669899 -3.46542,-9.465015 1.99737,-12.9171588 7.8928,-16.0779324 10.33049,-4.86890886 11.98485,0.9056604 13.95857,4.9695428 -13.49161,-3.1968884 -12.35217,4.5449956 -8.84286,7.2350686 6.94953,4.555152 14.69679,7.64779 20.60898,14.104732 6.81447,7.177456 4.19907,13.501536 -2.33861,16.077932 -9.43898,2.633414 -21.43627,1.887893 -29.01336,2.265528 -13.39731,3.252925 -4.91929,9.095311 0.0731,9.500595 27.13155,5.392058 59.87457,-0.559476 72.3507,9.866005 18.63007,12.133504 20.45715,28.331552 -0.4385,40.048672 -43.23114,12.61578 -0.96653,34.23706 -0.87697,33.47133"
       id="path1070"
       sodipodi:nodetypes="cccccccccccccccccccc" />
    <path
       style="fill:none;stroke:#edf067;stroke-width:1.5;stroke-linecap:butt;stroke-linejoin:miter;stroke-miterlimit:4;stroke-dasharray:none;stroke-opacity:1"
       d="m 124.53089,16.808747 c 1.12013,4.850548 4.52334,4.240445 4.53106,4.238728"
       id="path1072"
       sodipodi:nodetypes="cc" />
    <path
       style="fill:none;stroke:#edf067;stroke-width:2;stroke-linecap:butt;stroke-linejoin:miter;stroke-miterlimit:4;stroke-dasharray:none;stroke-opacity:1"
       d="m 133.593,22.801431 c 3.68935,2.239528 7.57188,3.802889 10.52374,8.623618 4.06543,4.845071 0.45371,7.236049 -0.73082,7.892804 l -3.50791,1.607793"
       id="path1074"
       sodipodi:nodetypes="cccc" />
    <path
       style="fill:none;stroke:#edf067;stroke-width:1.5;stroke-linecap:butt;stroke-linejoin:miter;stroke-miterlimit:4;stroke-dasharray:none;stroke-opacity:1"
       d="m 103.48342,52.911015 c 6.82316,15.047509 15.53021,13.611049 23.82457,15.785605"
       id="path1076"
       sodipodi:nodetypes="cc" />
    <path
       style="fill:none;stroke:#edf067;stroke-width:1.5;stroke-linecap:butt;stroke-linejoin:miter;stroke-miterlimit:4;stroke-dasharray:none;stroke-opacity:1"
       d="m 96.75992,50.426241 c -1.465554,3.603393 -5.202752,6.070963 -0.876977,12.570021 6.864157,8.629742 11.513817,7.958577 16.516417,8.769781"
       id="path1078"
       sodipodi:nodetypes="ccc" />
    <path
       style="fill:none;stroke:#edf067;stroke-width:1.5;stroke-linecap:butt;stroke-linejoin:miter;stroke-miterlimit:4;stroke-dasharray:none;stroke-opacity:1"
       d="m 137.24708,67.673478 c 7.01582,-0.942591 14.03165,-1.277862 21.04747,2.777099"
       id="path1080"
       sodipodi:nodetypes="cc" />
    <path
       style="fill:none;stroke:#edf067;stroke-width:1;stroke-linecap:butt;stroke-linejoin:miter;stroke-miterlimit:4;stroke-dasharray:none;stroke-opacity:1"
       d="m 175.39563,69.135108 c 4.78945,2.582178 2.19939,-1.624786 15.63944,8.915945 2.38184,4.19275 3.68996,8.922363 2.19244,15.054792 l -2.19244,3.069423"
       id="path1082"
       sodipodi:nodetypes="cccc" />
    <path
       style="fill:none;stroke:#edf067;stroke-width:1.5;stroke-linecap:butt;stroke-linejoin:miter;stroke-miterlimit:4;stroke-dasharray:none;stroke-opacity:1"
       d="m 166.77201,73.373836 c 7.90492,4.569345 19.16958,6.247759 11.10839,24.555389 -16.3003,7.977455 -26.76006,16.188525 -33.32517,24.555385 -8.12484,11.70002 -3.05662,17.0163 0.43849,23.09376"
       id="path1084"
       sodipodi:nodetypes="cccc" />
    <path
       style="fill:none;stroke:#edf067;stroke-width:1;stroke-linecap:butt;stroke-linejoin:miter;stroke-miterlimit:4;stroke-dasharray:none;stroke-opacity:1"
       d="m 163.16809,119.65736 c -8.20397,11.12127 -2.56682,17.89247 2.48477,24.84771"
       id="path1086"
       sodipodi:nodetypes="cc" />
    <path
       style="fill:none;stroke:#edf067;stroke-width:1.5;stroke-linecap:butt;stroke-linejoin:miter;stroke-miterlimit:4;stroke-dasharray:none;stroke-opacity:1"
       d="m 133.44684,118.68437 c -6.00082,4.58688 -4.92756,8.2895 -4.96954,12.13153"
       id="path1088"
       sodipodi:nodetypes="cc" />
    <path
       style="fill:none;stroke:#edf067;stroke-width:1;stroke-linecap:butt;stroke-linejoin:miter;stroke-miterlimit:4;stroke-dasharray:none;stroke-opacity:1"
       d="m 128.33113,136.80859 c -0.2739,6.13228 1.27787,6.78757 2.48477,8.47745"
       id="path1090"
       sodipodi:nodetypes="cc" />
    <path
       style="fill:none;stroke:#edf067;stroke-width:1.5;stroke-linecap:butt;stroke-linejoin:miter;stroke-miterlimit:4;stroke-dasharray:none;stroke-opacity:1"
       d="m 118.9767,143.82441 c -2.41976,-3.85281 -10.97823,-16.00187 7.01582,-29.2326 12.77277,-8.65467 20.26752,-8.73255 30.25575,-12.86235 9.28102,-6.236288 7.42253,-12.472577 5.26187,-18.708865"
       id="path1092"
       sodipodi:nodetypes="cccc" />
    <path
       style="fill:none;stroke:#edf067;stroke-width:1.5;stroke-linecap:butt;stroke-linejoin:miter;stroke-miterlimit:4;stroke-dasharray:none;stroke-opacity:1"
       d="m 119.12286,107.72215 c -7.08731,3.81126 -12.62679,8.86078 -11.98537,18.85503"
       id="path1094"
       sodipodi:nodetypes="cc" />
    <path
       style="fill:none;stroke:#edf067;stroke-width:1.5;stroke-linecap:butt;stroke-linejoin:miter;stroke-miterlimit:4;stroke-dasharray:none;stroke-opacity:1"
       d="m 101.72946,111.0839 c -9.880825,15.14913 -3.219644,31.61124 1.02314,32.59435"
       id="path1096"
       sodipodi:nodetypes="cc" />
    <path
       style="fill:none;stroke:#edf067;stroke-width:1.5;stroke-linecap:butt;stroke-linejoin:miter;stroke-miterlimit:4;stroke-dasharray:none;stroke-opacity:1"
       d="m 93.252008,116.93042 c -3.466727,2.52847 -4.57223,6.63108 -3.36175,12.27769"
       id="path1098"
       sodipodi:nodetypes="cc" />
    <path
       style="opacity:0.95;fill:#f0baa3;fill-rule:evenodd;stroke:#f0baa3;stroke-width:3.77953;stroke-miterlimit:4;stroke-dasharray:none"
       d="m 501.79957,574.70756 c -12.98427,-0.67908 -37.37652,-2.60671 -52.20437,-4.1255 -20.3924,-2.08877 -89.97809,-10.48147 -88.50275,-10.67428 0.24091,-0.0315 39.76708,-2.65556 87.83592,-5.83128 48.06885,-3.17572 88.88945,-5.90874 90.71246,-6.07339 l 3.31457,-0.29937 1.23851,2.17001 1.2385,2.17 2.53582,-1.41729 c 1.91323,-1.06933 2.46954,-1.67072 2.26588,-2.44952 -0.2137,-0.81717 0.0358,-1.0316 1.19752,-1.02921 0.8071,0.002 16.73995,-1.01877 35.40632,-2.26763 l 33.93886,-2.27066 1.01704,1.39618 c 0.55938,0.7679 1.44538,1.91558 1.96891,2.5504 l 0.95186,1.15422 1.63084,-1.31417 c 1.60334,-1.29201 1.61476,-1.33869 0.6778,-2.76869 -0.90586,-1.38251 -0.90455,-1.45466 0.0265,-1.45741 0.53871,-0.002 21.33155,-1.35878 46.2063,-3.01596 l 45.22681,-3.01307 2.15436,1.09908 c 1.87312,0.95559 2.07833,1.24113 1.57195,2.18731 -0.82264,1.53713 -2.62852,2.59489 -5.53801,3.24381 -1.37971,0.30773 -5.35719,1.66035 -8.83884,3.00584 -42.30298,16.34803 -90.629,26.28631 -141.39874,29.07876 -11.73179,0.64527 -51.94821,0.6153 -64.63398,-0.0482 z"
       id="path1705"
       transform="scale(0.26458333)" />
    <path
       style="opacity:0.95;fill:#f0baa3;fill-opacity:1;fill-rule:evenodd;stroke:#f0baa3;stroke-width:3.77954;stroke-miterlimit:4;stroke-dasharray:none"
       d="m 518.05236,575.68412 c -1.21534,-0.0496 -5.56571,-0.22384 -9.66748,-0.38712 -25.81031,-1.0274 -56.65027,-3.77201 -96.26043,-8.56671 -4.93732,-0.59764 -15.99967,-1.95251 -24.58301,-3.01081 -8.58334,-1.0583 -18.43381,-2.26906 -21.88993,-2.69057 -3.45612,-0.42151 -6.28386,-0.85472 -6.28386,-0.96269 0,-0.10797 0.65256,-0.26858 1.45012,-0.35691 1.69253,-0.18746 180.65367,-12.04012 181.67949,-12.0327 0.56319,0.004 0.89428,0.36065 1.79539,1.93365 0.60767,1.06076 1.20746,1.92974 1.33288,1.93107 0.2366,0.003 3.92464,-2.07751 4.54288,-2.56215 0.28097,-0.22025 0.26268,-0.41107 -0.0911,-0.95105 -0.24344,-0.37153 -0.39457,-0.72356 -0.33584,-0.78228 0.18775,-0.18775 70.96323,-4.82566 71.21989,-4.66703 0.13563,0.0838 0.95428,1.14085 1.81924,2.34896 0.86495,1.20811 1.68959,2.19656 1.83253,2.19656 0.27482,0 2.95794,-1.89989 2.95794,-2.09449 0,-0.0627 -0.43984,-0.72617 -0.97743,-1.47444 l -0.97742,-1.3605 1.4608,-0.16194 c 1.68636,-0.18695 80.62874,-5.40475 81.77075,-5.40475 h 0.75873 v 4.39043 4.39042 l -4.48847,1.66282 c -29.31656,10.86071 -60.14559,18.75675 -91.21954,23.36345 -15.77843,2.33914 -30.92116,3.80569 -50.40898,4.88203 -5.04192,0.27847 -40.57603,0.56528 -45.43713,0.36675 z"
       id="path1707"
       transform="scale(0.26458333)" />
  </g>
  <g
     inkscape:groupmode="layer"
     id="layer22"
     inkscape:label="detalle"
     style="display:inline"
     transform="translate(-70.66424,-126.84973)">
    <path
       style="fill:none;stroke:#f78952;stroke-width:0.264583px;stroke-linecap:butt;stroke-linejoin:miter;stroke-opacity:1"
       d="m 174.81097,126.8695 c 3.24714,21.48174 -50.23157,17.66033 -85.943856,21.63213"
       id="path1710"
       sodipodi:nodetypes="cc" />
    <path
       style="opacity:0.95;fill:#f0baa3;fill-opacity:1;fill-rule:evenodd;stroke:#d6968b;stroke-width:3.77953;stroke-miterlimit:4;stroke-dasharray:none"
       d="m 507.32598,576.6537 c -16.81662,-0.76952 -54.26008,-3.93959 -77.27902,-6.54267 -24.00379,-2.71444 -62.71531,-7.62146 -66.59628,-8.44165 -2.5798,-0.54521 -3.84322,-1.93896 -1.75763,-1.93896 0.92454,0 7.84369,-0.48471 15.37589,-1.07714 7.5322,-0.59243 32.09073,-2.08203 54.57452,-3.31023 50.00743,-2.7317 68.39263,-3.9574 93.20874,-6.21403 13.66383,-1.2425 19.52473,-1.40318 20.36947,-0.55844 0.84475,0.84474 1.68307,0.7643 2.9136,-0.27955 0.95018,-0.80605 10.17974,-2.79527 20.51013,-4.42051 10.33039,-1.62523 24.74874,-4.47517 32.04077,-6.33319 l 13.25826,-3.37822 2.76213,3.21113 c 1.51918,1.76612 3.63221,3.52659 4.69563,3.91215 1.06343,0.38555 1.9335,1.2138 1.9335,1.84054 0,0.62674 0.55806,1.13953 1.24013,1.13953 0.91219,0 0.91473,-0.3921 0.01,-1.48273 -0.6768,-0.81549 -0.91694,-1.79633 -0.53364,-2.17963 0.38331,-0.3833 -0.64415,-2.45515 -2.28325,-4.60411 -2.73488,-3.58561 -2.81576,-3.96587 -0.98271,-4.62007 20.25739,-7.22974 34.10105,-18.70579 39.09846,-32.41167 l 2.27269,-6.23306 11.8015,11.74909 c 10.98992,10.9411 25.77246,21.9909 38.31801,28.64231 4.05439,2.14957 4.21409,2.39763 1.93349,3.00335 -2.08687,0.55427 -2.48592,1.4177 -2.48592,5.37877 v 4.71852 l -14.63932,5.09638 c -56.67716,19.73088 -121.90395,28.4391 -189.75909,25.33409 z"
       id="path1712"
       transform="scale(0.26458333)" />
    <path
       style="opacity:0.95;fill:#d6968b;fill-opacity:1;fill-rule:evenodd;stroke:#d6968b;stroke-width:3.77953;stroke-miterlimit:4;stroke-dasharray:none"
       d="m 510.41814,574.72491 c -21.37533,-0.90052 -61.15966,-4.40128 -92.99282,-8.18276 -36.63216,-4.35155 -46.42032,-5.72592 -41.40625,-5.81387 0.85937,-0.0151 5.2539,-0.28415 9.76562,-0.59793 4.51172,-0.31379 22.35352,-1.37023 39.64844,-2.34765 55.7326,-3.14972 74.23073,-4.36967 97.85156,-6.45326 14.23597,-1.25576 19.77853,-1.42322 21.41427,-0.64701 1.71342,0.81307 1.57002,0.82412 3.95708,-0.30514 2.30928,-1.09246 9.77345,-2.71168 21.7478,-4.71781 11.79527,-1.97613 24.13143,-4.49985 34.1063,-6.97745 l 8.5692,-2.12846 2.75893,2.79728 c 1.51741,1.5385 3.4181,3.14486 4.22377,3.5697 0.80566,0.42483 1.46484,0.96548 1.46484,1.20144 0,0.79812 1.80148,2.1277 2.88289,2.1277 2.3533,0 3.595,-1.92753 2.40837,-3.73856 -0.33207,-0.5068 -0.60376,-1.3741 -0.60376,-1.92732 0,-1.10162 -1.16255,-3.62999 -2.5137,-5.46694 -0.47409,-0.64453 -0.97729,-1.36824 -1.11824,-1.60826 -0.16173,-0.27539 1.0734,-0.98215 3.34799,-1.91577 11.01209,-4.51997 19.65131,-10.12177 26.28717,-17.04502 5.03717,-5.25531 7.75415,-9.73972 10.46455,-17.27182 0.21822,-0.60643 1.51505,0.49561 7.58459,6.44531 7.73569,7.58295 14.24831,13.22865 21.35926,18.51604 4.92069,3.65881 13.20905,9.12742 17.12467,11.29876 l 2.65348,1.47143 -0.69369,1.03123 c -0.5021,0.74642 -0.74947,2.10053 -0.89566,4.90286 l -0.20198,3.87164 -10.74219,3.67434 c -18.67654,6.38828 -31.20033,10.02805 -47.28512,13.74242 -30.54014,7.05247 -61.75533,11.1398 -95.68363,12.52886 -10.89821,0.44618 -34.50482,0.42854 -45.48374,-0.034 z"
       id="path1794"
       transform="scale(0.26458333)" />
    <path
       style="opacity:0.95;fill:#d6968b;fill-opacity:1;fill-rule:evenodd;stroke:#d6968b;stroke-width:3.77952;stroke-miterlimit:4;stroke-dasharray:none"
       d="m 713.63062,541.86572 c 0.008,-1.03929 0.0254,-2.02695 0.0397,-2.1948 0.0561,-0.6597 0.14546,-1.14654 0.24692,-1.34542 0.0677,-0.13272 0.24824,-0.21012 0.96656,-0.41438 1.14974,-0.32695 1.60247,-0.54473 2.05018,-0.98624 0.24929,-0.24584 0.46892,-0.60403 0.54609,-0.89062 l 0.0248,-0.092 0.17697,-0.0148 c 0.0973,-0.008 0.29232,-0.0219 0.43331,-0.0305 l 0.25635,-0.0158 0.81787,0.40866 c 1.28438,0.64174 2.58053,1.24781 3.61328,1.68951 0.23499,0.1005 0.42994,0.18525 0.43323,0.18832 0.0143,0.0133 -0.46476,0.95386 -0.61021,1.19805 -0.97434,1.63578 -2.27683,2.6554 -4.14431,3.24423 -0.86769,0.27359 -1.77269,0.44009 -2.94029,0.54092 l -0.46226,0.0399 -0.6852,0.26939 c -0.37686,0.14817 -0.70578,0.27519 -0.73093,0.28226 -0.0445,0.0125 -0.0454,-0.038 -0.032,-1.87676 z"
       id="path1796"
       transform="scale(0.26458333)" />
    <path
       style="opacity:0.95;fill:#22202e;fill-opacity:1;fill-rule:evenodd;stroke:#22202e;stroke-width:3.77953;stroke-miterlimit:4;stroke-dasharray:none"
       d="m 347.52084,989.69968 c -7.4531,-3.29337 -8.10103,-4.13882 -5.08813,-6.63931 12.79372,-10.61784 13.4644,-44.57901 1.48667,-75.28038 l -7.2664,-18.62528 6.977,-6.23394 c 7.59713,-6.78804 14.90634,-7.788 27.01734,-3.6962 4.13121,1.39577 7.82925,2.79096 8.21787,3.10043 0.38862,0.30947 -1.26851,4.43417 -3.68251,9.166 -11.2359,22.02418 -8.16578,37.61151 11.12614,56.48865 12.04367,11.78473 13.15188,13.64124 11.94725,20.01442 -1.92144,10.16555 -9.27971,21.16496 -15.82291,23.65268 -8.51701,3.23816 -25.29543,2.30242 -34.91232,-1.94707 z"
       id="path1826"
       transform="scale(0.26458333)" />
    <path
       style="opacity:0.95;fill:#22202e;fill-opacity:1;fill-rule:evenodd;stroke:#22202e;stroke-width:3.77953;stroke-miterlimit:4;stroke-dasharray:none"
       d="m 677.11141,993.62259 c -15.27856,-2.2399 -27.01394,-8.00214 -36.36901,-17.85767 -7.32007,-7.71169 -8.05346,-9.7055 -7.62425,-20.72757 0.23226,-5.96436 1.32186,-7.01069 9.65308,-9.26979 14.89914,-4.04006 29.29156,-14.50597 36.26656,-26.37239 5.66656,-9.64039 6.27033,-12.63574 6.27033,-31.10751 0,-11.24196 0.52452,-20.43987 1.16561,-20.4398 0.64108,7e-5 3.33695,1.52099 5.99082,3.37984 9.81257,6.87299 12.63243,36.82974 5.04114,53.55454 -2.35301,5.18404 -9.38425,14.82442 -15.62499,21.42308 -12.70137,13.42983 -12.83672,12.05709 2.99688,30.39505 6.8319,7.9125 10.41926,13.89642 9.60421,16.02039 -0.71554,1.86468 -2.07797,3.26907 -3.02762,3.12087 -0.94965,-0.1482 -7.40389,-1.10177 -14.34276,-2.11904 z"
       id="path1828"
       transform="scale(0.26458333)" />
    <path
       style="opacity:0.95;fill:#22202e;fill-opacity:1;fill-rule:evenodd;stroke:#22202e;stroke-width:3.77953;stroke-miterlimit:4;stroke-dasharray:none"
       d="m 314.82034,576.34578 c -16.25075,-5.19714 -25.72756,-11.18733 -36.93552,-23.34653 -11.06767,-12.00701 -11.67311,-19.03091 -2.70725,-31.40792 6.26699,-8.65133 26.12583,-26.44223 27.60915,-24.73415 0.41295,0.47553 2.51553,6.33363 4.6724,13.018 2.15687,6.68436 7.27527,18.86538 11.37424,27.06893 4.09896,8.20354 6.75591,14.91553 5.90433,14.91553 -4.58217,0 -16.7764,-11.16099 -21.1249,-19.33495 -2.96482,-5.57302 -6.56986,-9.39126 -8.86689,-9.39126 -5.93666,0 -4.70709,7.088 3.31077,19.08522 5.52212,8.26281 10.32943,12.25715 20.80462,17.28632 12.09302,5.80589 13.71839,7.35701 14.47183,13.81068 1.00483,8.60718 -0.37033,8.83226 -18.51278,3.03013 z"
       id="path1830"
       transform="scale(0.26458333)" />
    <path
       style="opacity:0.95;fill:#22202e;fill-opacity:1;fill-rule:evenodd;stroke:#22202e;stroke-width:3.77953;stroke-miterlimit:4;stroke-dasharray:none"
       d="m 721.80124,562.93431 c -1.42794,-5.01327 -2.7953,-9.68045 -3.03859,-10.37149 -0.24329,-0.69105 1.42169,-2.1826 3.69995,-3.31457 5.82799,-2.89566 8.05114,-6.49404 10.49414,-16.98576 1.17094,-5.02875 1.99303,-9.25734 1.82686,-9.39686 -0.16617,-0.13953 -1.89445,-1.06329 -3.84061,-2.05281 l -3.53847,-1.79912 -1.151,4.14453 c -0.63304,2.27949 -1.15376,4.77439 -1.15715,5.54421 -0.009,1.98879 -8.32195,-2.41627 -22.80293,-12.083 -11.51459,-7.68653 -29.58852,-24.10297 -32.33275,-29.36765 -1.22342,-2.34707 -1.08376,-2.48592 2.50027,-2.48592 2.08784,0 9.4388,0.9739 16.33548,2.16421 32.98974,5.6938 55.78971,19.03658 64.26836,37.61055 1.58254,3.46683 2.27993,7.31297 2.30386,12.70582 0.0445,10.03135 -3.16453,17.44029 -10.54342,24.34238 -4.96618,4.64528 -15.53319,10.46053 -19.00804,10.46053 -0.83186,0 -2.49473,-3.77421 -4.01596,-9.11505 z"
       id="path1834"
       transform="scale(0.26458333)" />
    <path
       style="fill:none;stroke:#853e61;stroke-width:2;stroke-linecap:butt;stroke-linejoin:miter;stroke-miterlimit:4;stroke-dasharray:none;stroke-opacity:1"
       d="m 129.35427,248.69638 13.6297,0.54811"
       id="path1878" />
    <path
       style="fill:none;stroke:#2b1f4d;stroke-width:3;stroke-linecap:butt;stroke-linejoin:miter;stroke-miterlimit:4;stroke-dasharray:none;stroke-opacity:1"
       d="m 141.59543,246.72318 2.81364,0.16444"
       id="path1904" />
    <path
       style="fill:none;stroke:#2b1f4d;stroke-width:0.264583px;stroke-linecap:butt;stroke-linejoin:miter;stroke-opacity:1"
       d="m 101.72946,232.69153 70.15825,-5.26187"
       id="path1906" />
    <path
       style="fill:none;stroke:#2b1f4d;stroke-width:0.264583px;stroke-linecap:butt;stroke-linejoin:miter;stroke-opacity:1"
       d="m 186.38902,229.81773 3.16034,-46.10307 -0.99906,-5.6881 v 0 l 2.3235,-23.40527"
       id="path1908" />
  </g>
  <g
     inkscape:groupmode="layer"
     id="layer21"
     inkscape:label="estrellitas"
     style="display:none"
     transform="translate(-70.66424,-126.84973)">
    <path
       style="fill:#f0c5df;stroke:#513185;stroke-width:1;stroke-linecap:butt;stroke-linejoin:miter;stroke-miterlimit:4;stroke-dasharray:none;stroke-opacity:1"
       d="m 167.06433,13.300835 c 1.66369,3.898098 1.75616,9.838781 7.01583,9.062107 -5.89479,1.368351 -7.11737,7.04952 -8.03897,13.00851 -0.67978,-6.921849 -2.45574,-12.199432 -7.01582,-13.300836 4.09139,0.429626 7.06007,-1.807203 8.03896,-8.769781 z"
       id="path1101"
       sodipodi:nodetypes="ccccc" />
    <path
       style="fill:#f0c5df;stroke:#513185;stroke-width:1;stroke-linecap:butt;stroke-linejoin:miter;stroke-miterlimit:4;stroke-dasharray:none;stroke-opacity:1"
       d="m 212.6672,62.850098 c -1.31309,5.963036 -3.32834,6.308755 -5.40804,6.138849 4.20545,1.786757 3.53652,5.523264 4.09257,8.769781 1.10756,-3.77835 1.87811,-7.935834 5.99268,-8.331292 -3.69698,0.212708 -3.97723,-3.418421 -4.67721,-6.577338 z"
       id="path1103"
       sodipodi:nodetypes="ccccc" />
    <path
       style="fill:#f0c5df;stroke:#513185;stroke-width:1;stroke-linecap:butt;stroke-linejoin:miter;stroke-miterlimit:4;stroke-dasharray:none;stroke-opacity:1"
       d="m 69.135108,54.518808 c -0.806736,4.584527 -2.624803,8.258855 -7.308151,9.354431 5.293654,0.06036 4.259889,7.502708 5.261869,12.570021 1.937573,-4.98616 1.781301,-11.767046 8.769781,-12.423857 -5.683236,-0.708244 -6.402205,-4.962392 -6.723499,-9.500595 z"
       id="path1105"
       sodipodi:nodetypes="ccccc" />
    <path
       style="fill:#f0c5df;stroke:#513185;stroke-width:1;stroke-linecap:butt;stroke-linejoin:miter;stroke-miterlimit:4;stroke-dasharray:none;stroke-opacity:1"
       d="m 82.143617,75.420119 c -0.847949,3.763967 -2.518485,5.334368 -4.531053,5.992685 2.201634,0.858599 2.821167,4.881402 3.507912,8.769781 1.278741,-3.42107 1.591306,-7.670291 5.408033,-8.915945 -1.324847,-0.991351 -2.340119,0.184312 -4.384892,-5.846521 z"
       id="path1107"
       sodipodi:nodetypes="ccccc" />
  </g>
  <g
     inkscape:groupmode="layer"
     id="layer12"
     inkscape:label="pierna"
     style="display:none"
     transform="translate(-52.155076,-160.05586)">
    <path
       style="fill:none;stroke:#4cbd48;stroke-width:2;stroke-linecap:butt;stroke-linejoin:miter;stroke-miterlimit:4;stroke-dasharray:none;stroke-opacity:1"
       d="M -3.5079125,34.202147 -13.739324,49.987752 -5.8465209,67.23499 -18.416541,66.065685"
       id="path1403" />
  </g>
  <g
     inkscape:groupmode="layer"
     id="layer13"
     inkscape:label="pierna 2"
     style="display:none"
     transform="translate(-52.155076,-160.05586)">
    <path
       style="fill:none;stroke:#4cbd48;stroke-width:2;stroke-linecap:butt;stroke-linejoin:miter;stroke-miterlimit:4;stroke-dasharray:none;stroke-opacity:1"
       d="m 13.966427,33.750021 10.231411,15.785605 -7.892803,17.247238 12.57002,-1.169305"
       id="path1403-0" />
  </g>
  <g
     inkscape:groupmode="layer"
     id="layer14"
     inkscape:label="cuernos"
     style="display:none"
     transform="translate(-52.155076,-160.05586)">
    <path
       style="fill:#8294ab;stroke:#69728a;stroke-width:1;stroke-linecap:butt;stroke-linejoin:miter;stroke-miterlimit:4;stroke-dasharray:none;stroke-opacity:1"
       d="m -3.5456303,-9.0253627 2.78627548,-9.4233903 3.70504842,6.944577 z"
       id="path1427" />
    <path
       style="fill:#8294ab;stroke:#69728a;stroke-width:1;stroke-linecap:butt;stroke-linejoin:miter;stroke-miterlimit:4;stroke-dasharray:none;stroke-opacity:1"
       d="m 16.11646,-7.9749563 -2.682657,-9.4534107 -3.7810627,6.903483 z"
       id="path1427-3" />
  </g>
  <g
     inkscape:groupmode="layer"
     id="layer15"
     inkscape:label="sonrisa"
     style="display:none"
     transform="translate(-52.155076,-160.05586)">
    <path
       style="fill:#f5f8fa;stroke:#3b3d4d;stroke-width:1;stroke-linecap:butt;stroke-linejoin:miter;stroke-miterlimit:4;stroke-dasharray:none;stroke-opacity:1"
       d="m -7.0158249,19.001193 c 8.6754584,3.809596 15.8761576,3.194915 22.2167789,0 -3.278268,6.241652 -2.41232,8.687116 -11.4007156,8.477455 -4.79376211,0.450567 -9.7223651,2.107117 -10.8160633,-8.477455 z"
       id="path1450"
       sodipodi:nodetypes="cccc" />
  </g>
  <g
     inkscape:groupmode="layer"
     id="layer8"
     inkscape:label="Layer 8"
     transform="translate(-70.076976,-172.13547)"
     style="display:none">
    <circle
       style="opacity:1;fill:#f5f8fa;fill-rule:evenodd;stroke:#4cbd48;stroke-width:2;stroke-miterlimit:4;stroke-dasharray:none;stroke-opacity:1"
       id="path1367"
       sodipodi:type="arc"
       sodipodi:cx="23.048922"
       sodipodi:cy="17.135576"
       sodipodi:rx="11.354221"
       sodipodi:ry="10.34307"
       sodipodi:start="5.7742822"
       sodipodi:end="5.7588186"
       sodipodi:open="true"
       sodipodi:arc-type="arc"
       d="M 32.96433,12.096229 A 11.354221,10.34307 0 0 1 28.619212,26.148418 11.354221,10.34307 0 0 1 13.176582,22.244608 11.354221,10.34307 0 0 1 17.402301,8.1622366 11.354221,10.34307 0 0 1 32.877603,11.957164" />
  </g>
  <g
     inkscape:groupmode="layer"
     id="layer9"
     inkscape:label="Layer 9"
     transform="translate(-59.366674,-167.22822)"
     style="display:none">
    <circle
       style="opacity:1;fill:#93f0fa;fill-rule:evenodd;stroke:#4cbd48;stroke-width:2;stroke-miterlimit:4;stroke-dasharray:none;stroke-opacity:1"
       id="path1374"
       sodipodi:type="arc"
       sodipodi:cx="12.452216"
       sodipodi:cy="11.839623"
       sodipodi:rx="4.2670865"
       sodipodi:ry="3.6536567"
       sodipodi:start="5.7742822"
       sodipodi:end="5.7588186"
       sodipodi:open="true"
       sodipodi:arc-type="arc"
       d="m 16.178575,10.05949 a 4.2670865,3.6536567 0 0 1 -1.63296,4.963891 4.2670865,3.6536567 0 0 1 -5.8035722,-1.379008 4.2670865,3.6536567 0 0 1 1.5880882,-4.9745533 4.2670865,3.6536567 0 0 1 5.815851,1.3405463" />
    <circle
       style="opacity:1;fill:#22202e;fill-rule:evenodd;stroke:#22202e;stroke-width:2;stroke-miterlimit:4;stroke-dasharray:none;stroke-opacity:1"
       id="path1376"
       sodipodi:type="arc"
       sodipodi:cx="12.460179"
       sodipodi:cy="11.510782"
       sodipodi:rx="0.016296597"
       sodipodi:ry="0.80653548"
       sodipodi:start="5.7742822"
       sodipodi:end="5.7588186"
       sodipodi:open="true"
       sodipodi:arc-type="arc"
       d="m 12.474411,11.117822 a 0.0162966,0.80653548 0 0 1 -0.0062,1.095767 0.0162966,0.80653548 0 0 1 -0.02216,-0.304413 0.0162966,0.80653548 0 0 1 0.0061,-1.09812 0.0162966,0.80653548 0 0 1 0.02221,0.295922" />
  </g>
  <g
     inkscape:groupmode="layer"
     id="layer10"
     inkscape:label="Layer 10"
     style="display:none"
     transform="translate(-52.155076,-160.05586)" />
  <g
     inkscape:groupmode="layer"
     id="layer6"
     inkscape:label="Layer 6"
     style="display:none"
     transform="translate(-75.899583,-149.55485)">
    <circle
       style="display:inline;fill:#4cbd48;fill-rule:evenodd;stroke:#4cbd48;stroke-width:2;stroke-miterlimit:4;stroke-dasharray:none;stroke-opacity:1"
       id="path1264-4"
       sodipodi:type="arc"
       sodipodi:cx="124.96767"
       sodipodi:cy="8.1635456"
       sodipodi:rx="0.62011719"
       sodipodi:ry="2.9972332"
       sodipodi:start="5.7742822"
       sodipodi:end="5.7588186"
       sodipodi:open="true"
       sodipodi:arc-type="arc"
       transform="rotate(-24.881999)"
       d="m 125.5092,6.7032347 a 0.62011719,2.9972332 0 0 1 -0.23731,4.0720683 0.62011719,2.9972332 0 0 1 -0.84341,-1.131253 0.62011719,2.9972332 0 0 1 0.23079,-4.0808146 0.62011719,2.9972332 0 0 1 0.8452,1.0997008" />
    <circle
       style="display:inline;fill:#4cbd48;fill-rule:evenodd;stroke:#4cbd48;stroke-width:2;stroke-miterlimit:4;stroke-dasharray:none;stroke-opacity:1"
       id="path1272-7"
       sodipodi:type="arc"
       sodipodi:cx="131.79132"
       sodipodi:cy="-65.493027"
       sodipodi:rx="1.066996"
       sodipodi:ry="3.9517479"
       sodipodi:start="5.7742822"
       sodipodi:end="5.7588186"
       sodipodi:open="true"
       sodipodi:arc-type="arc"
       transform="rotate(20.302935)"
       d="m 132.72311,-67.418396 a 1.066996,3.9517479 0 0 1 -0.40833,5.36888 1.066996,3.9517479 0 0 1 -1.4512,-1.491517 1.066996,3.9517479 0 0 1 0.39711,-5.380413 1.066996,3.9517479 0 0 1 1.45427,1.449918" />
    <circle
       style="display:inline;fill:#4cbd48;fill-rule:evenodd;stroke:#4cbd48;stroke-width:2;stroke-miterlimit:4;stroke-dasharray:none;stroke-opacity:1"
       id="path1274-7"
       sodipodi:type="arc"
       sodipodi:cx="96.69783"
       sodipodi:cy="78.533379"
       sodipodi:rx="0.63732761"
       sodipodi:ry="3.8625634"
       sodipodi:start="5.7742822"
       sodipodi:end="5.7588186"
       sodipodi:open="true"
       sodipodi:arc-type="arc"
       transform="rotate(-35.500946)"
       inkscape:transform-center-x="0.20854874"
       inkscape:transform-center-y="0.00044816647"
       d="m 97.254395,76.651462 a 0.63732761,3.8625634 0 0 1 -0.243897,5.247713 0.63732761,3.8625634 0 0 1 -0.866815,-1.457856 0.63732761,3.8625634 0 0 1 0.237195,-5.258985 0.63732761,3.8625634 0 0 1 0.868649,1.417195" />
    <circle
       style="display:inline;fill:#4cbd48;fill-rule:evenodd;stroke:#4cbd48;stroke-width:2;stroke-miterlimit:4;stroke-dasharray:none;stroke-opacity:1"
       id="path1276-0"
       sodipodi:type="arc"
       sodipodi:cx="142.21213"
       sodipodi:cy="-64.427719"
       sodipodi:rx="0.39976588"
       sodipodi:ry="3.9653943"
       sodipodi:start="5.7742822"
       sodipodi:end="5.7588186"
       sodipodi:open="true"
       sodipodi:arc-type="arc"
       transform="rotate(34.756327)"
       d="m 142.56124,-66.359737 a 0.39976588,3.9653943 0 0 1 -0.15299,5.38742 0.39976588,3.9653943 0 0 1 -0.54371,-1.496668 0.39976588,3.9653943 0 0 1 0.14878,-5.398992 0.39976588,3.9653943 0 0 1 0.54486,1.454924" />
    <circle
       style="display:inline;fill:#4cbd48;fill-rule:evenodd;stroke:#4cbd48;stroke-width:2;stroke-miterlimit:4;stroke-dasharray:none;stroke-opacity:1"
       id="path1278-0"
       sodipodi:type="arc"
       sodipodi:cx="119.03436"
       sodipodi:cy="-93.552437"
       sodipodi:rx="0.82178283"
       sodipodi:ry="3.1761262"
       sodipodi:start="5.7742822"
       sodipodi:end="5.7588186"
       sodipodi:open="true"
       sodipodi:arc-type="arc"
       transform="rotate(17.231784)"
       d="m 119.75201,-95.099908 a 0.82178283,3.1761262 0 0 1 -0.31449,4.315114 0.82178283,3.1761262 0 0 1 -1.11769,-1.198773 0.82178283,3.1761262 0 0 1 0.30585,-4.324382 0.82178283,3.1761262 0 0 1 1.12005,1.165337" />
  </g>
  <g
     inkscape:groupmode="layer"
     id="layer5"
     inkscape:label="Layer 5"
     style="display:none"
     transform="translate(-75.899583,-149.55485)">
    <rect
       style="display:inline;opacity:0.95;fill:#c78350;fill-rule:evenodd;stroke-width:0.264583"
       id="rect31-3"
       width="8.1851292"
       height="94.713638"
       x="24.263062"
       y="-63.727077" />
  </g>
  <g
     inkscape:groupmode="layer"
     id="layer4"
     inkscape:label="Layer 4"
     transform="translate(-75.899583,-149.55485)"
     style="display:none">
    <path
       style="display:inline;fill:none;stroke:#86d468;stroke-width:2;stroke-linecap:butt;stroke-linejoin:miter;stroke-miterlimit:4;stroke-dasharray:none;stroke-opacity:1"
       d="m 24.263062,30.986561 c 4.92722,4.022264 11.01842,-0.22934 18.12421,-11.693042 -14.18592,-4.755715 -24.13533,-6.246384 -23.97073,-20.4628232 14.54779,-2.041244 24.29743,-7.404285 18.70886,-23.3860838 l -21.98603,-21.632127 c -13.8612165,-10.312633 4.66846,-13.116166 17.30882,-17.539559"
       id="path35-9"
       sodipodi:nodetypes="cccccc" />
  </g>
  <g
     inkscape:groupmode="layer"
     id="layer16"
     inkscape:label="fantasma"
     transform="translate(-52.155076,-160.05586)"
     style="display:none">
    <path
       style="fill:#edf067;stroke:#802114;stroke-width:2;stroke-linecap:butt;stroke-linejoin:miter;stroke-miterlimit:4;stroke-dasharray:none;stroke-opacity:1"
       d="M 0.51855398,41.487566 C 8.7359856,19.361859 -13.903048,-0.65703511 -27.478648,-40.633319 -24.15256,-69.566897 -10.076918,-75.173251 -1.2354027,-79.535416 24.698328,-77.650129 30.348864,-51.830615 28.355627,-39.17169 16.549314,-2.4052442 10.344911,42.807915 0.51855398,41.487566"
       id="path1453"
       sodipodi:nodetypes="ccccc" />
  </g>
  <g
     inkscape:groupmode="layer"
     id="layer17"
     inkscape:label="ojos-fantasma"
     style="display:none"
     transform="translate(-52.155076,-160.05586)">
    <circle
       style="opacity:1;fill:#f5f8fa;fill-rule:evenodd;stroke:#802114;stroke-width:2;stroke-miterlimit:4;stroke-dasharray:none;stroke-opacity:1"
       id="path1456"
       sodipodi:type="arc"
       sodipodi:cx="-8.7697811"
       sodipodi:cy="-53.057178"
       sodipodi:rx="4.3848906"
       sodipodi:ry="9.792922"
       sodipodi:start="5.7742822"
       sodipodi:end="5.7588186"
       sodipodi:open="true"
       sodipodi:arc-type="arc"
       d="m -4.9405463,-57.828482 a 4.3848906,9.792922 0 0 1 -1.6780425,13.304752 4.3848906,9.792922 0 0 1 -5.9637942,-3.696166 4.3848906,9.792922 0 0 1 1.631931,-13.33333 4.3848906,9.792922 0 0 1 5.9764127,3.593075" />
    <circle
       style="fill:#f5f8fa;fill-rule:evenodd;stroke:#802114;stroke-width:2;stroke-miterlimit:4;stroke-dasharray:none;stroke-opacity:1"
       id="path1456-6"
       sodipodi:type="arc"
       sodipodi:cx="9.0620823"
       sodipodi:cy="-53.495964"
       sodipodi:rx="4.3848906"
       sodipodi:ry="9.792922"
       sodipodi:start="5.7742822"
       sodipodi:end="5.7588186"
       sodipodi:open="true"
       sodipodi:arc-type="arc"
       d="m 12.891317,-58.267268 a 4.3848906,9.792922 0 0 1 -1.678042,13.304752 4.3848906,9.792922 0 0 1 -5.963795,-3.696165 4.3848906,9.792922 0 0 1 1.6319318,-13.333331 4.3848906,9.792922 0 0 1 5.9764122,3.593076" />
  </g>
  <g
     inkscape:groupmode="layer"
     id="layer18"
     inkscape:label="boca-fantasma"
     style="display:none"
     transform="translate(-52.155076,-160.05586)">
    <circle
       style="opacity:1;fill:#f5f8fa;fill-rule:evenodd;stroke:#802114;stroke-width:2;stroke-miterlimit:4;stroke-dasharray:none;stroke-opacity:1"
       id="path1479"
       sodipodi:type="arc"
       sodipodi:cx="1.2514982"
       sodipodi:cy="-27.782106"
       sodipodi:rx="4.5947657"
       sodipodi:ry="10.535337"
       sodipodi:start="5.7742822"
       sodipodi:end="5.7588186"
       sodipodi:open="true"
       sodipodi:arc-type="arc"
       d="m 5.2640127,-32.91513 a 4.5947657,10.535337 0 0 1 -1.7583592,14.313405 4.5947657,10.535337 0 0 1 -6.2492411,-3.976377 4.5947657,10.535337 0 0 1 1.7100414,-14.34415 4.5947657,10.535337 0 0 1 6.2624628,3.865472" />
  </g>
  <g
     inkscape:groupmode="layer"
     id="layer3"
     inkscape:label="Layer 3"
     style="display:none"
     transform="translate(-112.1853,-187.35247)">
    <rect
       style="opacity:0.95;fill:#57352c;fill-rule:evenodd;stroke-width:0.264583"
       id="rect855"
       width="58"
       height="3"
       x="36.215019"
       y="46.371262" />
    <rect
       style="opacity:0.95;fill:#57352c;fill-rule:evenodd;stroke-width:0.264583"
       id="rect855-2"
       width="58"
       height="3"
       x="36.195198"
       y="55.033764" />
    <rect
       style="opacity:0.95;fill:#57352c;fill-rule:evenodd;stroke-width:0.264583"
       id="rect855-9"
       width="58"
       height="3"
       x="36.213764"
       y="64.782845" />
    <rect
       style="opacity:0.95;fill:#57352c;fill-rule:evenodd;stroke-width:0.264583"
       id="rect855-8"
       width="58"
       height="3"
       x="36.347397"
       y="74.939087" />
    <rect
       style="opacity:0.95;fill:#57352c;fill-rule:evenodd;stroke-width:0.264583"
       id="rect855-6"
       width="58"
       height="3"
       x="36.347401"
       y="83.625343" />
  </g>
  <g
     inkscape:groupmode="layer"
     id="layer2"
     inkscape:label="Layer 2"
     style="display:none"
     transform="translate(-112.1853,-187.35247)">
    <circle
       style="opacity:0.95;fill:#57352c;fill-rule:evenodd;stroke-width:0.264583"
       id="path836"
       sodipodi:type="arc"
       sodipodi:cx="44.567192"
       sodipodi:cy="90.203461"
       sodipodi:rx="1.2695302"
       sodipodi:ry="1.2027128"
       sodipodi:start="5.7742822"
       sodipodi:end="5.7588186"
       sodipodi:open="true"
       sodipodi:arc-type="arc"
       d="m 45.675847,89.617475 a 1.2695302,1.2027128 0 0 1 -0.485834,1.634017 1.2695302,1.2027128 0 0 1 -1.72666,-0.453943 1.2695302,1.2027128 0 0 1 0.472483,-1.637526 1.2695302,1.2027128 0 0 1 1.730314,0.441282" />
    <circle
       style="opacity:0.95;fill:#57352c;fill-rule:evenodd;stroke-width:0.264583"
       id="path838"
       sodipodi:type="arc"
       sodipodi:cx="77.909065"
       sodipodi:cy="50.580757"
       sodipodi:rx="2.0045214"
       sodipodi:ry="1.2695302"
       sodipodi:start="5.7742822"
       sodipodi:end="5.7588186"
       sodipodi:open="true"
       sodipodi:arc-type="arc"
       d="m 79.659573,49.962217 a 2.0045214,1.2695302 0 0 1 -0.767106,1.724795 2.0045214,1.2695302 0 0 1 -2.726306,-0.479161 2.0045214,1.2695302 0 0 1 0.746026,-1.7285 2.0045214,1.2695302 0 0 1 2.732074,0.465797" />
    <circle
       style="opacity:0.95;fill:#57352c;fill-rule:evenodd;stroke-width:0.264583"
       id="path840"
       sodipodi:type="arc"
       sodipodi:cx="43.631752"
       sodipodi:cy="45.10173"
       sodipodi:rx="0.86862594"
       sodipodi:ry="1.403165"
       sodipodi:start="5.7742822"
       sodipodi:end="5.7588186"
       sodipodi:open="true"
       sodipodi:arc-type="arc"
       d="m 44.390305,44.418081 a 0.86862594,1.403165 0 0 1 -0.332412,1.906352 0.86862594,1.403165 0 0 1 -1.181399,-0.529599 0.86862594,1.403165 0 0 1 0.323278,-1.910448 0.86862594,1.403165 0 0 1 1.183898,0.514829" />
    <circle
       style="opacity:0.95;fill:#57352c;fill-rule:evenodd;stroke-width:0.264583"
       id="path842"
       sodipodi:type="arc"
       sodipodi:cx="57.262497"
       sodipodi:cy="64.879677"
       sodipodi:rx="1.0022607"
       sodipodi:ry="1.1358955"
       sodipodi:start="5.7742822"
       sodipodi:end="5.7588186"
       sodipodi:open="true"
       sodipodi:arc-type="arc"
       d="m 58.137751,64.326246 a 1.0022607,1.1358955 0 0 1 -0.383553,1.543238 1.0022607,1.1358955 0 0 1 -1.363153,-0.428724 1.0022607,1.1358955 0 0 1 0.373013,-1.546552 1.0022607,1.1358955 0 0 1 1.366037,0.416766" />
    <circle
       style="opacity:0.95;fill:#57352c;fill-rule:evenodd;stroke-width:0.264583"
       id="path844"
       sodipodi:type="arc"
       sodipodi:cx="83.388092"
       sodipodi:cy="84.256721"
       sodipodi:rx="2.271791"
       sodipodi:ry="1.6704345"
       sodipodi:start="5.7742822"
       sodipodi:end="5.7588186"
       sodipodi:open="true"
       sodipodi:arc-type="arc"
       d="m 85.372,83.442853 a 2.271791,1.6704345 0 0 1 -0.869385,2.269467 2.271791,1.6704345 0 0 1 -3.089814,-0.630476 2.271791,1.6704345 0 0 1 0.845496,-2.274342 2.271791,1.6704345 0 0 1 3.096351,0.612892" />
    <circle
       style="opacity:0.95;fill:#57352c;fill-rule:evenodd;stroke-width:0.264583"
       id="path846"
       sodipodi:type="arc"
       sodipodi:cx="86.225815"
       sodipodi:cy="72.996651"
       sodipodi:rx="1.1811756"
       sodipodi:ry="1.0866816"
       sodipodi:start="5.7742822"
       sodipodi:end="5.7588186"
       sodipodi:open="true"
       sodipodi:arc-type="arc"
       d="m 87.257311,72.467198 a 1.1811756,1.0866816 0 0 1 -0.452021,1.476376 1.1811756,1.0866816 0 0 1 -1.606491,-0.410149 1.1811756,1.0866816 0 0 1 0.4396,-1.479547 1.1811756,1.0866816 0 0 1 1.60989,0.398709" />
    <circle
       style="opacity:0.95;fill:#57352c;fill-rule:evenodd;stroke-width:0.264583"
       id="path850"
       sodipodi:type="arc"
       sodipodi:cx="46.39658"
       sodipodi:cy="75.311752"
       sodipodi:rx="1.2284226"
       sodipodi:ry="1.6063988"
       sodipodi:start="5.7742822"
       sodipodi:end="5.7588186"
       sodipodi:open="true"
       sodipodi:arc-type="arc"
       d="m 47.469336,74.529083 a 1.2284226,1.6063988 0 0 1 -0.470102,2.182468 1.2284226,1.6063988 0 0 1 -1.670751,-0.606307 1.2284226,1.6063988 0 0 1 0.457184,-2.187155 1.2284226,1.6063988 0 0 1 1.674286,0.589396" />
    <circle
       style="opacity:0.95;fill:#57352c;fill-rule:evenodd;stroke-width:0.264583"
       id="circle852"
       sodipodi:type="arc"
       sodipodi:cx="46.39658"
       sodipodi:cy="75.311752"
       sodipodi:rx="1.2284226"
       sodipodi:ry="1.6063988"
       sodipodi:start="5.7742822"
       sodipodi:end="5.7588186"
       sodipodi:open="true"
       sodipodi:arc-type="arc"
       d="m 47.469336,74.529083 a 1.2284226,1.6063988 0 0 1 -0.470102,2.182468 1.2284226,1.6063988 0 0 1 -1.670751,-0.606307 1.2284226,1.6063988 0 0 1 0.457184,-2.187155 1.2284226,1.6063988 0 0 1 1.674286,0.589396" />
  </g>
</svg>
